<svg width="1600" height="900" viewBox="0 0 1600 900" fill="none" xmlns="http://www.w3.org/2000/svg">
  <defs>
    <linearGradient id="bg" x1="0" y1="0" x2="1600" y2="900" gradientUnits="userSpaceOnUse">
      <stop stop-color="#0F172A"/>
      <stop offset="0.55" stop-color="#134E4A"/>
      <stop offset="1" stop-color="#14B8A6"/>
    </linearGradient>
    <linearGradient id="card" x1="250" y1="160" x2="1160" y2="760" gradientUnits="userSpaceOnUse">
      <stop stop-color="white" stop-opacity="0.22"/>
      <stop offset="1" stop-color="white" stop-opacity="0.05"/>
    </linearGradient>
  </defs>
  <rect width="1600" height="900" fill="url(#bg)"/>
  <circle cx="1310" cy="170" r="180" fill="white" fill-opacity="0.08"/>
  <circle cx="230" cy="720" r="220" fill="white" fill-opacity="0.06"/>
  <rect x="180" y="140" width="1240" height="620" rx="36" fill="url(#card)" stroke="rgba(255,255,255,0.28)"/>
  <rect x="290" y="245" width="500" height="18" rx="9" fill="#99F6E4" fill-opacity="0.9"/>
  <rect x="290" y="290" width="740" height="120" rx="24" fill="white" fill-opacity="0.12"/>
  <rect x="290" y="438" width="620" height="28" rx="14" fill="white" fill-opacity="0.12"/>
  <rect x="290" y="488" width="560" height="28" rx="14" fill="white" fill-opacity="0.1"/>
  <rect x="290" y="582" width="190" height="58" rx="29" fill="#14B8A6"/>
  <rect x="502" y="582" width="190" height="58" rx="29" fill="white" fill-opacity="0.12" stroke="rgba(255,255,255,0.2)"/>
  <g opacity="0.95">
    <rect x="1020" y="265" width="255" height="255" rx="28" fill="white" fill-opacity="0.92"/>
    <rect x="1065" y="318" width="165" height="110" rx="14" fill="#CCFBF1"/>
    <path d="M1048 450L1148 372L1248 450V500C1248 511.046 1239.05 520 1228 520H1068C1056.95 520 1048 511.046 1048 500V450Z" fill="#14B8A6"/>
    <rect x="1130" y="456" width="36" height="64" rx="10" fill="#0F172A" fill-opacity="0.75"/>
    <rect x="1076" y="462" width="32" height="32" rx="8" fill="white" fill-opacity="0.9"/>
    <rect x="1188" y="462" width="32" height="32" rx="8" fill="white" fill-opacity="0.9"/>
  </g>
  <text x="290" y="382" fill="white" font-family="Inter, Arial, sans-serif" font-size="72" font-weight="800">Axis Housing</text>
  <text x="290" y="562" fill="#E5E7EB" font-family="Inter, Arial, sans-serif" font-size="34" font-weight="500">Modern student homes near UW with fast online applications</text>
</svg>
